# xmcd
#
# Track frame offsets:
#	150
#	15745
#	38497
#	59130
#	79215
#	101437
#	118280
#	138445
#	158070
#	175457
#	196040
#	213662
#
# Disc length: 3158 seconds
#
# Revision: 2
# Processed by: cddbd v1.4PL0 Copyright (c) Steve Scherf et al.
# Submitted via: EasyCDDAExtractor 5.0.4.1
#
DISCID=a70c540c
DTITLE=Jimmy King and The King James Version Band - Soldier For The Blues
DYEAR=1997
DGENRE=Blues
TTITLE0=Living In The Danger Zone
TTITLE1=Drawers
TTITLE2=I'm Doing Fine
TTITLE3=Life Is Hard
TTITLE4=I Don't Need Nobody That Don't Need Me
TTITLE5=We'll Be Together Again
TTITLE6=Soldier For The Blues
TTITLE7=You Ain't Bullet Proof
TTITLE8=It Takes A Whole Lot Of Money
TTITLE9=Don't Wanna Go Home
TTITLE10=It Ain't The Same No Mo
TTITLE11=I Got Sick One Day
EXTD=
EXTT0=
EXTT1=
EXTT2=
EXTT3=
EXTT4=
EXTT5=
EXTT6=
EXTT7=
EXTT8=
EXTT9=
EXTT10=
EXTT11=
PLAYORDER=
